<?xml version="1.0" encoding="utf-8"?>
<!-- Generator: Adobe Illustrator 25.2.3, SVG Export Plug-In . SVG Version: 6.00 Build 0)  -->
<svg version="1.1" id="Layer_1" xmlns="http://www.w3.org/2000/svg" xmlns:xlink="http://www.w3.org/1999/xlink" x="0px" y="0px"
	 viewBox="0 0 52.3 45.4" style="enable-background:new 0 0 52.3 45.4;" xml:space="preserve">
<style type="text/css">
	.st0{fill:#787878;}
</style>
<g>
	<path class="st0" d="M52,8.3c-0.2-0.2-0.5-0.4-0.8-0.4H17.5c-0.6,0-1,0.4-1,1s0.4,1,1,1H50l-3.2,14.3H14.5L8.4,0.7
		C8.3,0.3,7.9,0,7.4,0H1C0.4,0,0,0.4,0,1s0.4,1,1,1h5.6l8.8,33.5c0.1,0.4,0.5,0.7,1,0.7h28.9c0.6,0,1-0.4,1-1s-0.4-1-1-1H17.2
		l-2.1-8h32.6c0.5,0,0.9-0.3,1-0.8l3.6-16.3C52.3,8.8,52.2,8.5,52,8.3z"/>
	<path class="st0" d="M17.5,45.4c-2.3,0-4.1-1.8-4.1-4.1s1.8-4.1,4.1-4.1c2.3,0,4.1,1.8,4.1,4.1S19.8,45.4,17.5,45.4z M17.5,39.1
		c-1.2,0-2.1,1-2.1,2.1c0,1.2,1,2.1,2.1,2.1c1.2,0,2.1-1,2.1-2.1C19.6,40.1,18.7,39.1,17.5,39.1z"/>
	<path class="st0" d="M43.2,45.4c-2.3,0-4.1-1.8-4.1-4.1s1.8-4.1,4.1-4.1s4.1,1.8,4.1,4.1S45.5,45.4,43.2,45.4z M43.2,39.1
		c-1.2,0-2.1,1-2.1,2.1c0,1.2,1,2.1,2.1,2.1s2.1-1,2.1-2.1C45.3,40.1,44.4,39.1,43.2,39.1z"/>
</g>
</svg>
