<?xml version="1.0" encoding="utf-8"?>
<!-- Generator: Adobe Illustrator 26.0.2, SVG Export Plug-In . SVG Version: 6.00 Build 0)  -->
<svg version="1.1" id="Layer_1" xmlns="http://www.w3.org/2000/svg" xmlns:xlink="http://www.w3.org/1999/xlink" x="0px" y="0px"
	 viewBox="0 0 1799 396.6" style="enable-background:new 0 0 1799 396.6;" xml:space="preserve">
<style type="text/css">
	.st0{fill:#0976DA;}
	.st1{fill:#91A5AF;}
</style>
<g>
	<g>
		<path class="st0" d="M371.1,81h-55V26c0-14.4-11.6-26-26-26h-27.6c-14.4,0-26,11.6-26,26v55h-55c-14.4,0-26,11.6-26,26v27.6
			c0,14.4,11.6,26,26,26h55v55c0,14.4,11.6,26,26,26h27.6c14.4,0,26-11.6,26-26v-55h55c14.4,0,26-11.6,26-26V107
			C397.1,92.6,385.5,81,371.1,81L371.1,81z"/>
		<path class="st1" d="M293.5,271.1h-34.4c-8.5,0-16.6-3.3-22.7-9.3c-12.8,43.3-58.3,68.1-101.6,55.3
			c-43.3-12.8-68.1-58.3-55.3-101.6c7.9-26.6,28.7-47.5,55.4-55.3c-5.7-6-8.9-14-8.9-22.2v-34.4c0-7.7,2.8-15.2,7.8-21
			c-86.2,13.3-145.4,94-132,180.3s94,145.4,180.3,132c67.7-10.5,121-63.4,131.9-131.1C308.1,268.5,300.9,271.1,293.5,271.1z"/>
	</g>
	<g>
		<path class="st1" d="M495.4,93.1c5.2,2.2,9.6,5.8,12.7,10.5c3,4.9,4.5,10.5,4.4,16.3c0.1,5.7-1.4,11.4-4.4,16.2
			c-3.1,4.7-7.5,8.4-12.7,10.6c-6.1,2.6-12.7,3.8-19.4,3.7h-19.4v24.7h-15.9V89.5H476C482.6,89.3,489.3,90.6,495.4,93.1z
			 M491.1,132.6c3.6-2.9,5.4-7.1,5.4-12.6s-1.8-9.7-5.4-12.6s-8.9-4.4-15.8-4.4h-18.6v34h18.6C482.2,137,487.5,135.5,491.1,132.6
			L491.1,132.6z"/>
		<path class="st1" d="M584.5,175.2L567,150.1c-0.7,0.1-1.8,0.1-3.3,0.1h-19.4v25h-15.9V89.5h35.3c6.7-0.1,13.3,1.1,19.4,3.7
			c5.2,2.2,9.6,5.8,12.7,10.5c3,4.9,4.6,10.5,4.4,16.3c0.2,5.9-1.5,11.7-4.7,16.6c-3.3,4.8-8,8.4-13.5,10.4l19.7,28.2H584.5z
			 M578.8,107.3c-3.6-2.9-8.9-4.4-15.8-4.4h-18.6v34.2H563c6.9,0,12.2-1.5,15.8-4.5s5.4-7.2,5.4-12.7
			C584.1,114.5,582.3,110.3,578.8,107.3L578.8,107.3z"/>
		<path class="st1" d="M617.9,89.5h15.9v85.7h-15.9V89.5z"/>
		<path class="st1" d="M734.7,89.5l-37.3,85.7h-15.7l-37.5-85.7h17.3l28.5,66.1l28.8-66.1C718.8,89.5,734.7,89.5,734.7,89.5z"/>
		<path class="st1" d="M796.7,155.4h-42.8l-8.5,19.8H729l38.5-85.7h15.7l38.7,85.7h-16.7L796.7,155.4z M791.4,142.9l-16.2-37.5
			l-16,37.5H791.4z"/>
		<path class="st1" d="M845.9,102.9h-28.4V89.5h72.7V103h-28.4v72.2h-15.9L845.9,102.9L845.9,102.9z"/>
		<path class="st1" d="M966.5,161.8v13.3h-64.3V89.5h62.6v13.3h-46.7v22.3h41.4v13.1h-41.4v23.6L966.5,161.8z"/>
		<path class="st0" d="M457,303.8c-6.8-3.6-12.5-9.1-16.5-15.7c-7.9-14.1-7.9-31.3,0.1-45.3c4-6.6,9.6-12.1,16.5-15.7
			c7.2-3.9,15.3-5.8,23.5-5.7c6.6-0.1,13.1,1.2,19.2,3.7c5.7,2.4,10.7,6,14.7,10.7l-10.3,9.7c-5.8-6.5-14.2-10.2-22.9-10
			c-5.5-0.1-10.9,1.2-15.8,3.8c-4.6,2.5-8.3,6.2-10.9,10.7c-5.2,9.7-5.2,21.4,0,31.1c2.6,4.5,6.3,8.2,10.9,10.7
			c4.8,2.6,10.3,3.9,15.8,3.9c8.8,0.1,17.1-3.6,22.9-10.2l10.3,9.8c-4,4.7-9.1,8.3-14.8,10.7c-6.1,2.5-12.7,3.8-19.3,3.7
			C472.2,309.6,464.2,307.7,457,303.8z"/>
		<path class="st0" d="M544.3,303.8c-6.9-3.6-12.6-9.1-16.5-15.8c-8-14-8-31.2,0-45.2c3.9-6.7,9.7-12.2,16.5-15.8
			c14.8-7.6,32.4-7.6,47.3,0c6.8,3.6,12.6,9.1,16.5,15.7c8,14,8,31.3,0,45.3c-4,6.7-9.7,12.1-16.5,15.7
			C576.7,311.4,559.2,311.4,544.3,303.8L544.3,303.8z M583.4,291.7c4.5-2.5,8.3-6.3,10.8-10.8c5.2-9.7,5.2-21.3,0-31
			c-2.5-4.5-6.3-8.2-10.8-10.8c-9.6-5.1-21.2-5.1-30.9,0c-4.5,2.5-8.2,6.2-10.8,10.8c-5.2,9.7-5.2,21.3,0,31
			c2.5,4.5,6.2,8.2,10.8,10.8C562.1,296.8,573.7,296.8,583.4,291.7L583.4,291.7z"/>
		<path class="st0" d="M687.1,308.3l-17.5-25.1c-0.7,0.1-1.8,0.1-3.3,0.1h-19.4v25H631v-85.7h35.3c6.7-0.2,13.3,1.1,19.4,3.7
			c5.2,2.2,9.6,5.8,12.7,10.5c3,4.9,4.6,10.5,4.4,16.3c0.2,5.9-1.5,11.8-4.7,16.7c-3.3,4.8-8.1,8.4-13.5,10.4l19.7,28.2h-17.2V308.3
			z M681.3,240.4c-3.6-2.9-8.9-4.4-15.8-4.4h-18.6v34.2h18.6c6.9,0,12.2-1.5,15.8-4.5s5.4-7.2,5.4-12.7
			C686.7,247.6,684.9,243.4,681.3,240.4z"/>
		<path class="st0" d="M736.9,303.8c-6.9-3.6-12.6-9.1-16.5-15.8c-8-14-8-31.2,0-45.2c3.9-6.7,9.7-12.2,16.5-15.8
			c14.8-7.6,32.4-7.6,47.3,0c6.8,3.6,12.6,9.1,16.5,15.7c8,14,8,31.3,0,45.3c-4,6.7-9.7,12.1-16.5,15.7
			C769.3,311.4,751.8,311.4,736.9,303.8L736.9,303.8z M776,291.7c4.5-2.5,8.3-6.3,10.8-10.8c5.2-9.7,5.2-21.3,0-31
			c-2.5-4.5-6.3-8.3-10.8-10.8c-9.6-5.1-21.2-5.1-30.8,0c-4.5,2.5-8.3,6.2-10.8,10.8c-5.2,9.7-5.2,21.3,0,31
			c2.5,4.5,6.2,8.3,10.8,10.8C754.8,296.8,766.3,296.8,776,291.7z"/>
		<path class="st0" d="M899.8,222.6v85.7h-13.1l-47.3-58v58h-15.8v-85.7h13.1l47.3,58v-58L899.8,222.6L899.8,222.6z"/>
		<path class="st0" d="M978.4,288.4h-42.9l-8.5,19.8h-16.4l38.6-85.7h15.7l38.7,85.7H987L978.4,288.4z M973.1,276L957,238.5L941,276
			H973.1z"/>
		<path class="st0" d="M1088.3,222.6l-37.3,85.7h-15.7l-37.5-85.7h17.3l28.5,66.1l28.8-66.1L1088.3,222.6L1088.3,222.6z"/>
		<path class="st0" d="M1097.4,222.6h15.9v85.7h-15.9V222.6z"/>
		<path class="st0" d="M1192.5,308.3l-17.5-25.1c-0.7,0.1-1.8,0.1-3.3,0.1h-19.3v25h-15.8v-85.7h35.3c6.7-0.2,13.3,1.1,19.4,3.7
			c5.2,2.2,9.6,5.8,12.6,10.5c3,4.9,4.6,10.5,4.4,16.3c0.2,5.9-1.5,11.8-4.7,16.7c-3.3,4.8-8,8.4-13.5,10.4l19.7,28.2L1192.5,308.3z
			 M1186.7,240.4c-3.6-2.9-8.8-4.4-15.8-4.4h-18.6v34.2h18.6c6.9,0,12.2-1.5,15.8-4.5c3.6-3,5.4-7.2,5.4-12.7
			C1192.2,247.6,1190.4,243.4,1186.7,240.4L1186.7,240.4z"/>
		<path class="st0" d="M1235.1,299.5c-6.6-6.7-9.9-16.2-9.9-28.6v-48.4h15.9v47.8c0,16.8,7.3,25.2,21.8,25.2s21.8-8.4,21.7-25.2
			v-47.8h15.7v48.4c0,12.4-3.3,21.9-9.8,28.6c-6.6,6.7-15.8,10-27.6,10C1251,309.5,1241.8,306.2,1235.1,299.5z"/>
		<path class="st0" d="M1330,306.7c-6.2-1.9-11.1-4.4-14.6-7.5l5.5-12.4c3.9,3,8.3,5.3,12.9,6.8c4.9,1.7,10.1,2.6,15.4,2.6
			c6.4,0,11.1-1,14.3-3.1c3.1-2,4.7-4.7,4.7-8.1c0.1-2.3-0.9-4.5-2.6-6.1c-1.9-1.7-4.2-3-6.7-3.7c-2.7-0.9-6.3-1.9-11-3.1
			c-5.4-1.2-10.7-2.8-15.8-4.7c-4-1.5-7.6-4-10.4-7.3c-2.9-3.3-4.3-7.8-4.3-13.4c0-4.6,1.3-9.1,3.9-12.9c2.9-4.1,6.9-7.4,11.6-9.2
			c5.2-2.3,11.5-3.4,19-3.4c5.2,0,10.4,0.7,15.4,2c4.7,1.1,9.1,3,13.1,5.6l-5,12.4c-3.7-2.2-7.6-3.9-11.8-5
			c-3.9-1.1-7.9-1.7-11.9-1.7c-6.3,0-11,1.1-14,3.2c-2.9,1.8-4.6,5-4.6,8.4c-0.1,2.3,0.9,4.5,2.6,6c2,1.7,4.2,2.9,6.7,3.7
			c2.7,0.9,6.3,1.9,11,3.1c5.3,1.2,10.6,2.7,15.7,4.6c4,1.6,7.6,4.1,10.5,7.3c2.9,3.3,4.3,7.7,4.3,13.2c0,4.6-1.3,9.1-3.9,12.9
			s-6.5,6.9-11.7,9.2s-11.6,3.4-19.1,3.4C1342.6,309.6,1336.2,308.6,1330,306.7z"/>
		<path class="st0" d="M1450.8,236h-28.4v-13.5h72.7V236h-28.4v72.3h-15.9L1450.8,236z"/>
		<path class="st0" d="M1571.4,294.9v13.4h-64.3v-85.7h62.6v13.3H1523v22.3h41.4v13.1H1523v23.6H1571.4z"/>
		<path class="st0" d="M1596.5,306.7c-6.2-1.9-11.1-4.4-14.6-7.5l5.5-12.4c3.9,3,8.3,5.3,12.9,6.8c4.9,1.7,10.1,2.6,15.4,2.6
			c6.4,0,11.1-1,14.3-3.1c3.1-2,4.7-4.7,4.7-8.1c0.1-2.3-0.9-4.5-2.6-6.1c-1.9-1.7-4.2-3-6.7-3.7c-2.7-0.9-6.3-1.9-11-3.1
			c-5.4-1.2-10.7-2.8-15.8-4.7c-4-1.5-7.6-4-10.4-7.3c-2.9-3.3-4.3-7.8-4.3-13.4c0-4.6,1.3-9.1,3.9-12.9c2.9-4.1,6.9-7.4,11.6-9.2
			c5.2-2.3,11.5-3.4,19-3.4c5.2,0,10.4,0.7,15.4,2c4.7,1.1,9.1,3,13.1,5.6l-5,12.4c-3.7-2.2-7.6-3.9-11.8-5
			c-3.9-1.1-7.9-1.7-11.9-1.7c-6.3,0-11,1.1-14,3.2c-2.9,1.8-4.6,5-4.6,8.4c-0.1,2.3,0.9,4.5,2.6,6c2,1.7,4.2,2.9,6.7,3.7
			c2.7,0.9,6.3,1.9,11,3.1c5.3,1.2,10.6,2.7,15.7,4.6c4,1.6,7.6,4.1,10.5,7.3c2.9,3.3,4.3,7.7,4.3,13.2c0,4.6-1.3,9.1-3.9,12.9
			s-6.5,6.9-11.7,9.2c-5.2,2.3-11.6,3.4-19.1,3.4C1609.2,309.6,1602.7,308.6,1596.5,306.7z"/>
		<path class="st0" d="M1682.3,236h-28.4v-13.5h72.7V236h-28.4v72.3h-15.9L1682.3,236z"/>
		<path class="st0" d="M1745.2,306.7c-6.2-1.9-11-4.4-14.6-7.5l5.5-12.4c3.9,3,8.3,5.3,12.9,6.8c4.9,1.7,10.1,2.6,15.4,2.6
			c6.4,0,11.1-1,14.3-3.1c3.1-2,4.7-4.7,4.7-8.1c0.1-2.3-0.9-4.5-2.6-6.1c-1.9-1.7-4.2-3-6.7-3.7c-2.7-0.9-6.3-1.9-11-3.1
			c-5.4-1.2-10.7-2.8-15.8-4.7c-4-1.5-7.6-4-10.4-7.3c-2.9-3.3-4.3-7.8-4.3-13.4c0-4.6,1.3-9.1,3.9-12.9c2.9-4.1,6.9-7.4,11.6-9.2
			c5.2-2.3,11.5-3.4,19-3.4c5.2,0,10.4,0.7,15.4,2c4.7,1.1,9.1,3,13.1,5.6l-5,12.4c-3.7-2.2-7.6-3.9-11.8-5
			c-3.9-1.1-7.9-1.7-11.9-1.7c-6.3,0-11,1.1-14,3.2c-2.9,1.8-4.6,5-4.6,8.4c-0.1,2.3,0.9,4.5,2.6,6c2,1.7,4.2,2.9,6.7,3.7
			c2.7,0.9,6.3,1.9,11,3.1c5.3,1.2,10.6,2.7,15.7,4.6c4,1.6,7.6,4.1,10.5,7.3c2.9,3.3,4.3,7.7,4.3,13.2c0,4.6-1.3,9.1-3.9,12.9
			s-6.5,6.9-11.7,9.2s-11.6,3.4-19.1,3.4C1757.9,309.6,1751.4,308.6,1745.2,306.7z"/>
	</g>
</g>
</svg>
