<?xml version="1.0" encoding="utf-8"?>
<!-- Generator: Adobe Illustrator 26.0.1, SVG Export Plug-In . SVG Version: 6.00 Build 0)  -->
<svg version="1.1" id="MASTER_LAYER" xmlns="http://www.w3.org/2000/svg" xmlns:xlink="http://www.w3.org/1999/xlink" x="0px"
	 y="0px" viewBox="0 0 221.1 334.2" style="enable-background:new 0 0 221.1 334.2;" xml:space="preserve">
<style type="text/css">
	.st0{fill:#FFFFFF;}
	.st1{fill:none;stroke:#000000;stroke-miterlimit:10;}
	.st2{fill:none;}
	.st3{clip-path:url(#SVGID_00000118380902518987514300000008020908338681002141_);}
	.st4{clip-path:url(#SVGID_00000077315903779323215840000008999813513762278835_);fill:#FFFFFF;}
	.st5{clip-path:url(#SVGID_00000046297226537622098250000007525520247841569196_);fill:#FFFFFF;}
	.st6{clip-path:url(#SVGID_00000138559849382914403850000005956977958460044687_);fill:#FFFFFF;}
	.st7{clip-path:url(#SVGID_00000072961674497377735180000000402858886500132745_);fill:#FFFFFF;}
	.st8{clip-path:url(#SVGID_00000079479984486219552940000011151259077403754133_);fill:#FFFFFF;}
	.st9{clip-path:url(#SVGID_00000164513526858324882770000008373045205073205901_);fill:#FFFFFF;}
	.st10{clip-path:url(#SVGID_00000044162995776097620080000011149134210358985910_);fill:#FFFFFF;}
	.st11{clip-path:url(#SVGID_00000080204233849362565370000018149749504722773674_);fill:#FFFFFF;}
	.st12{clip-path:url(#SVGID_00000115500748313188657330000001418034715069977271_);fill:#FFFFFF;}
	.st13{clip-path:url(#SVGID_00000072242332166404125740000008961658390634964393_);fill:#FFFFFF;}
	.st14{clip-path:url(#SVGID_00000090292582362986048230000004913834382767169180_);fill:#FFFFFF;}
	.st15{clip-path:url(#SVGID_00000114788394930073404010000016119133242784537525_);fill:#FFFFFF;}
	.st16{clip-path:url(#SVGID_00000127738247454835688330000003361001226533713310_);fill:#FFFFFF;}
	.st17{clip-path:url(#SVGID_00000126310841118106718700000014456131717535771839_);fill:#FFFFFF;}
	.st18{clip-path:url(#SVGID_00000037692987062401303500000001911813409589637019_);fill:#FFFFFF;}
	.st19{clip-path:url(#SVGID_00000026132789681779689190000018017221322479087767_);fill:#FFFFFF;}
	.st20{clip-path:url(#SVGID_00000080889156592470842370000000863006824085159087_);fill:#FFFFFF;}
	.st21{clip-path:url(#SVGID_00000118395020265920922050000016567999917383449514_);fill:#FFFFFF;}
	.st22{clip-path:url(#SVGID_00000145047601644776983250000006987537818574898341_);fill:#FFFFFF;}
</style>
<rect width="221.1" height="283.5"/>
<g>
	<path class="st0" d="M70.1,256.4h-2l-5-11.9H63l-1,14.1h-2.4l1.3-17.1h3.2l5,12.2l5.1-12.2h3.1l1.3,17.1h-2.4l-1-14.2h-0.1
		L70.1,256.4z"/>
	<path class="st0" d="M82.6,258.6v-17.1h10.5v2H85v5.6h7.2v2H85v5.4h8.3v2H82.6V258.6z"/>
	<path class="st0" d="M96.9,258.6v-17.1h6.2c5,0.1,7.4,1.8,7.4,6.8v3.4c0,5.1-2.7,6.8-7.4,6.8h-6.2V258.6z M103.2,256.6
		c3.8,0,5.1-1.3,5.1-4.8v-3.4c0-3.7-1.6-4.8-5.1-4.8h-3.9v13H103.2z"/>
	<path class="st0" d="M114.5,241.6h2.4v17.1h-2.4V241.6z"/>
	<path class="st0" d="M120.8,247.9c0-2.3,0.1-6.6,7.3-6.6c2,0,3.3,0.3,4.5,0.5v2c-1-0.2-2.4-0.5-4.3-0.5c-5.1,0-5.2,2.5-5.2,4.5v4.4
		c0,1.9,0.1,4.5,5,4.5c2,0,3.5-0.3,4.5-0.5v2c-1.2,0.2-2.5,0.5-4.5,0.5c-7.2,0-7.3-4.3-7.3-6.6V247.9z"/>
	<path class="st0" d="M147.5,258.6l-1.8-5.3H139l-1.8,5.3h-2.5l6.1-17.1h3l6.1,17.1H147.5z M139.7,251.3h5.2l-2.6-7.5h-0.1
		L139.7,251.3z"/>
	<path class="st0" d="M152.8,241.6h2.4v15h7.4v2h-9.8L152.8,241.6L152.8,241.6z"/>
</g>
<path class="st1" d="M113.8,143.6"/>
<path class="st1" d="M83.7,128.5"/>
<path class="st1" d="M139.5,136.5"/>
<g>
	<path class="st2" d="M95.8,135.2h-4l18.7,18.8l24-24.3c2.4-2.4,3.7-5.6,3.7-9.1c0-3.4-1.3-6.6-3.8-9.1c-2.4-2.4-5.6-3.7-9.1-3.7
		l0,0c-3.4,0-6.6,1.3-9,3.8l-0.3,0.3l-5.6,4.9l-5.9-5.2c-2.4-2.4-5.7-3.8-9.1-3.8l0,0c-3.4,0-6.6,1.3-9,3.8
		c-3.1,3.1-4.4,7.8-3.4,11.8h9.2l6.5-7.5l11.8,15.5l6.7-7.9h10.9v5.7H120l-9.6,11.3l-11.9-15.6L95,129h0.8V135.2z"/>
	<path class="st0" d="M138.6,107.5c-3.5-3.5-8.2-5.5-13.1-5.4c-4.9,0-9.5,2-13,5.4l-1.9,1.7l-2-1.7c-3.5-3.5-8.1-5.4-13-5.4
		c0,0,0,0-0.1,0c-4.9,0-9.5,2-13,5.4c-5.3,5.3-6.9,13.2-4,19.8l0.7,1.7H95l3.6-4.2l11.9,15.6l9.6-11.3h8.3v-5.7h-10.9l-6.7,7.9
		L99,115.8l-6.5,7.5h-9.2c-1-4.1,0.3-8.7,3.4-11.8c2.4-2.4,5.6-3.7,9-3.8l0,0c3.4,0,6.6,1.3,9.1,3.8l5.9,5.2l5.6-4.9l0.3-0.3
		c2.4-2.4,5.6-3.7,9-3.8l0,0c3.4,0,6.6,1.3,9.1,3.7c2.4,2.5,3.8,5.7,3.8,9.1c0,3.5-1.3,6.6-3.7,9.1l-24,24.3l-18.7-18.8h-7.9l0,0
		l26.7,26.9l27.9-28.2l0.2-0.2c3.5-3.5,5.4-8.1,5.4-13.1C144,115.7,142.1,111.1,138.6,107.5z"/>
</g>
<g>
	<g>
		<defs>
			<rect id="SVGID_1_" x="76" y="7.9" width="69" height="69"/>
		</defs>
		<clipPath id="SVGID_00000058580415497018766040000008435767514209658792_">
			<use xlink:href="#SVGID_1_"  style="overflow:visible;"/>
		</clipPath>
		<g style="clip-path:url(#SVGID_00000058580415497018766040000008435767514209658792_);">
			<g>
				<defs>
					<rect id="SVGID_00000137849327182968930550000016662922585896114832_" x="76" y="7.9" width="69" height="69"/>
				</defs>
				<clipPath id="SVGID_00000150791669575408900240000000288027951369594026_">
					<use xlink:href="#SVGID_00000137849327182968930550000016662922585896114832_"  style="overflow:visible;"/>
				</clipPath>
				<path style="clip-path:url(#SVGID_00000150791669575408900240000000288027951369594026_);fill:#FFFFFF;" d="M80.9,51.7
					c0.1-0.1,0.2-0.2,0.2-0.3c0.1-0.1,0.1-0.2,0.2-0.3c0-0.1,0.1-0.2,0.1-0.4s0-0.2,0-0.4c0-0.1,0-0.2,0-0.4c0-0.1-0.1-0.2-0.1-0.4
					c0-0.1-0.1-0.2-0.2-0.3S81,49,80.9,48.9s-0.2-0.2-0.3-0.2c-0.1-0.1-0.2-0.1-0.3-0.2c-0.1,0-0.2-0.1-0.4-0.1c-0.2,0-0.5,0-0.7,0
					c-0.1,0-0.2,0.1-0.4,0.1c-0.1,0-0.2,0.1-0.3,0.2c-0.1,0.1-0.2,0.1-0.3,0.2C78.1,49,78,49.1,78,49.2c-0.1,0.1-0.1,0.2-0.2,0.3
					c0,0.1-0.1,0.2-0.1,0.4c0,0.1,0,0.2,0,0.4c0,0.1,0,0.2,0,0.4c0,0.1,0.1,0.2,0.1,0.4c0,0.1,0.1,0.2,0.2,0.3s0.1,0.2,0.2,0.3
					s0.2,0.2,0.3,0.2c0.1,0.1,0.2,0.1,0.3,0.2c0.1,0,0.2,0.1,0.4,0.1c0.1,0,0.2,0,0.4,0C80.1,52.3,80.6,52.1,80.9,51.7"/>
			</g>
			<g>
				<defs>
					<rect id="SVGID_00000009571228407931593510000000871632022840771747_" x="76" y="7.9" width="69" height="69"/>
				</defs>
				<clipPath id="SVGID_00000134948617261778708330000007790812147230005912_">
					<use xlink:href="#SVGID_00000009571228407931593510000000871632022840771747_"  style="overflow:visible;"/>
				</clipPath>
				<path style="clip-path:url(#SVGID_00000134948617261778708330000007790812147230005912_);fill:#FFFFFF;" d="M78.8,36.9
					c0.3,0.2,0.6,0.3,1,0.3c0.7,0,1.3-0.3,1.6-0.9c0.5-0.9,0.2-2.1-0.7-2.6c-0.9-0.5-2.1-0.2-2.6,0.7C77.6,35.2,77.9,36.4,78.8,36.9
					"/>
			</g>
			<g>
				<defs>
					<rect id="SVGID_00000033364474754301380000000001378307153959463059_" x="76" y="7.9" width="69" height="69"/>
				</defs>
				<clipPath id="SVGID_00000142159404379525057320000001623072731835379626_">
					<use xlink:href="#SVGID_00000033364474754301380000000001378307153959463059_"  style="overflow:visible;"/>
				</clipPath>
				<path style="clip-path:url(#SVGID_00000142159404379525057320000001623072731835379626_);fill:#FFFFFF;" d="M83.2,33.2
					c0.4,0,0.9-0.1,1.2-0.4c0.8-0.7,0.9-1.9,0.3-2.7c-0.7-0.8-1.9-0.9-2.7-0.3c-0.8,0.7-0.9,1.9-0.3,2.7
					C82.1,33,82.6,33.2,83.2,33.2"/>
			</g>
			<g>
				<defs>
					<rect id="SVGID_00000178206138921784149010000003212938361456459654_" x="76" y="7.9" width="69" height="69"/>
				</defs>
				<clipPath id="SVGID_00000134210800226375542100000017929880017375874717_">
					<use xlink:href="#SVGID_00000178206138921784149010000003212938361456459654_"  style="overflow:visible;"/>
				</clipPath>
				<path style="clip-path:url(#SVGID_00000134210800226375542100000017929880017375874717_);fill:#FFFFFF;" d="M87.7,30.6
					c0.2,0,0.4,0,0.6-0.1c1-0.3,1.5-1.4,1.2-2.4s-1.4-1.5-2.4-1.2s-1.5,1.4-1.2,2.4C86.2,30.1,86.9,30.6,87.7,30.6"/>
			</g>
			<g>
				<defs>
					<rect id="SVGID_00000095311848343008381220000008425216026354721183_" x="76" y="7.9" width="69" height="69"/>
				</defs>
				<clipPath id="SVGID_00000141429853963132914150000014808661437355266441_">
					<use xlink:href="#SVGID_00000095311848343008381220000008425216026354721183_"  style="overflow:visible;"/>
				</clipPath>
				<path style="clip-path:url(#SVGID_00000141429853963132914150000014808661437355266441_);fill:#FFFFFF;" d="M92.9,29.7
					c1,0,1.9-0.9,1.9-1.9s-0.9-1.9-1.9-1.9S91,26.7,91,27.8C91,28.9,91.8,29.7,92.9,29.7"/>
			</g>
			<g>
				<defs>
					<rect id="SVGID_00000105390067126772417310000010664750875249336449_" x="76" y="7.9" width="69" height="69"/>
				</defs>
				<clipPath id="SVGID_00000131330231821947745860000002557328904072020887_">
					<use xlink:href="#SVGID_00000105390067126772417310000010664750875249336449_"  style="overflow:visible;"/>
				</clipPath>
				<path style="clip-path:url(#SVGID_00000131330231821947745860000002557328904072020887_);fill:#FFFFFF;" d="M97.3,30.6
					c0.2,0.1,0.4,0.1,0.7,0.1c0.8,0,1.5-0.5,1.8-1.2c0.4-1-0.1-2.1-1.1-2.4c-1-0.4-2.1,0.1-2.4,1.1C95.9,29.1,96.4,30.2,97.3,30.6"
					/>
			</g>
			<g>
				<defs>
					<rect id="SVGID_00000080914519319087675910000004925659675289978527_" x="76" y="7.9" width="69" height="69"/>
				</defs>
				<clipPath id="SVGID_00000023980538441670416150000003395549489843592614_">
					<use xlink:href="#SVGID_00000080914519319087675910000004925659675289978527_"  style="overflow:visible;"/>
				</clipPath>
				<path style="clip-path:url(#SVGID_00000023980538441670416150000003395549489843592614_);fill:#FFFFFF;" d="M77.6,42.1
					c0.1,0,0.2,0,0.4,0c0.9,0,1.7-0.6,1.9-1.5c0.2-1-0.5-2-1.5-2.2s-2,0.5-2.2,1.5C75.9,40.9,76.6,41.9,77.6,42.1"/>
			</g>
			<g>
				<defs>
					<rect id="SVGID_00000033341811852733868100000014378389902600606141_" x="76" y="7.9" width="69" height="69"/>
				</defs>
				<clipPath id="SVGID_00000129194110391909860620000003026327156336359342_">
					<use xlink:href="#SVGID_00000033341811852733868100000014378389902600606141_"  style="overflow:visible;"/>
				</clipPath>
				<path style="clip-path:url(#SVGID_00000129194110391909860620000003026327156336359342_);fill:#FFFFFF;" d="M78.3,47.3
					c1-0.2,1.7-1.2,1.6-2.2l0,0c-0.2-1-1.2-1.7-2.2-1.6c-1,0.2-1.7,1.2-1.6,2.2c0.2,0.9,1,1.6,1.9,1.6
					C78.1,47.3,78.2,47.3,78.3,47.3"/>
			</g>
			<g>
				<defs>
					<rect id="SVGID_00000112596390447832826300000013472230101652253367_" x="76" y="7.9" width="69" height="69"/>
				</defs>
				<clipPath id="SVGID_00000046319587348463100610000004342237360886103702_">
					<use xlink:href="#SVGID_00000112596390447832826300000013472230101652253367_"  style="overflow:visible;"/>
				</clipPath>
				<path style="clip-path:url(#SVGID_00000046319587348463100610000004342237360886103702_);fill:#FFFFFF;" d="M101.9,32.1
					c0.1,0.1,0.2,0.1,0.3,0.2c0.1,0,0.2,0.1,0.4,0.1c0.1,0,0.2,0,0.4,0c0.5,0,1-0.2,1.3-0.6c0.4-0.4,0.6-0.8,0.6-1.3
					c0-0.1,0-0.2,0-0.4c0-0.1-0.1-0.2-0.1-0.4c0-0.1-0.1-0.2-0.2-0.3c-0.1-0.1-0.1-0.2-0.2-0.3c-0.4-0.4-1.1-0.6-1.7-0.5
					c-0.1,0-0.2,0.1-0.4,0.1c-0.1,0-0.2,0.1-0.3,0.2c-0.1,0.1-0.2,0.1-0.3,0.2s-0.2,0.2-0.2,0.3c-0.1,0.1-0.1,0.2-0.2,0.3
					c0,0.1-0.1,0.2-0.1,0.4c0,0.1,0,0.2,0,0.4c0,0.5,0.2,1,0.6,1.3C101.7,32,101.8,32,101.9,32.1"/>
			</g>
			<g>
				<defs>
					<rect id="SVGID_00000081628620924782277190000008561017154804366499_" x="76" y="7.9" width="69" height="69"/>
				</defs>
				<clipPath id="SVGID_00000142150754254582166890000018061465889012009893_">
					<use xlink:href="#SVGID_00000081628620924782277190000008561017154804366499_"  style="overflow:visible;"/>
				</clipPath>
				<path style="clip-path:url(#SVGID_00000142150754254582166890000018061465889012009893_);fill:#FFFFFF;" d="M143.3,49.7
					c0-0.1-0.1-0.2-0.2-0.3c-0.1-0.1-0.1-0.2-0.2-0.3c-0.1-0.1-0.2-0.2-0.3-0.2c-0.1-0.1-0.2-0.1-0.3-0.2c-0.1,0-0.2-0.1-0.4-0.1
					s-0.5,0-0.7,0c-0.1,0-0.2,0.1-0.4,0.1c-0.1,0-0.2,0.1-0.3,0.2c-0.1,0.1-0.2,0.1-0.3,0.2c-0.1,0.1-0.2,0.2-0.2,0.3
					c-0.1,0.1-0.1,0.2-0.2,0.3c0,0.1-0.1,0.2-0.1,0.4c0,0.1,0,0.2,0,0.4c0,0.1,0,0.2,0,0.4c0,0.1,0.1,0.2,0.1,0.4
					c0,0.1,0.1,0.2,0.2,0.3c0.1,0.1,0.1,0.2,0.2,0.3c0.4,0.4,0.8,0.6,1.3,0.6c0.1,0,0.2,0,0.4,0c0.1,0,0.2-0.1,0.4-0.1
					c0.1,0,0.2-0.1,0.3-0.2c0.1-0.1,0.2-0.1,0.3-0.2c0.1-0.1,0.2-0.2,0.2-0.3c0.1-0.1,0.1-0.2,0.2-0.3c0-0.1,0.1-0.2,0.1-0.4
					c0-0.1,0-0.2,0-0.4c0-0.1,0-0.2,0-0.4C143.3,49.9,143.3,49.8,143.3,49.7"/>
			</g>
			<g>
				<defs>
					<rect id="SVGID_00000052782252566719543660000004670258760753575073_" x="76" y="7.9" width="69" height="69"/>
				</defs>
				<clipPath id="SVGID_00000183942411965259996210000006945245917722271919_">
					<use xlink:href="#SVGID_00000052782252566719543660000004670258760753575073_"  style="overflow:visible;"/>
				</clipPath>
				<path style="clip-path:url(#SVGID_00000183942411965259996210000006945245917722271919_);fill:#FFFFFF;" d="M132.8,30.5
					c0.2,0.1,0.4,0.1,0.6,0.1c0.8,0,1.5-0.5,1.8-1.3c0.3-1-0.2-2.1-1.2-2.4s-2.1,0.2-2.4,1.2C131.3,29.1,131.8,30.2,132.8,30.5"/>
			</g>
			<g>
				<defs>
					<rect id="SVGID_00000183957644847569913810000014264960344572328638_" x="76" y="7.9" width="69" height="69"/>
				</defs>
				<clipPath id="SVGID_00000088836512216243549830000003034015227079466134_">
					<use xlink:href="#SVGID_00000183957644847569913810000014264960344572328638_"  style="overflow:visible;"/>
				</clipPath>
				<path style="clip-path:url(#SVGID_00000088836512216243549830000003034015227079466134_);fill:#FFFFFF;" d="M136.7,32.8
					c0.4,0.3,0.8,0.4,1.2,0.4c0.5,0,1.1-0.2,1.5-0.7c0.7-0.8,0.6-2-0.3-2.7c-0.8-0.7-2-0.6-2.7,0.3
					C135.8,30.9,135.9,32.1,136.7,32.8"/>
			</g>
			<g>
				<defs>
					<rect id="SVGID_00000072261273398746278620000016249032510932873903_" x="76" y="7.9" width="69" height="69"/>
				</defs>
				<clipPath id="SVGID_00000055681171667261665210000012453782382865498272_">
					<use xlink:href="#SVGID_00000072261273398746278620000016249032510932873903_"  style="overflow:visible;"/>
				</clipPath>
				<path style="clip-path:url(#SVGID_00000055681171667261665210000012453782382865498272_);fill:#FFFFFF;" d="M139.7,36.2
					c0.4,0.6,1,0.9,1.6,0.9c0.3,0,0.7-0.1,1-0.3c0.9-0.5,1.2-1.7,0.7-2.6c-0.5-0.9-1.7-1.2-2.6-0.7
					C139.4,34.2,139.1,35.3,139.7,36.2"/>
			</g>
			<g>
				<defs>
					<rect id="SVGID_00000110438654766190864960000005683958913419335056_" x="76" y="7.9" width="69" height="69"/>
				</defs>
				<clipPath id="SVGID_00000172402844857617374350000001859621036369493913_">
					<use xlink:href="#SVGID_00000110438654766190864960000005683958913419335056_"  style="overflow:visible;"/>
				</clipPath>
				<path style="clip-path:url(#SVGID_00000172402844857617374350000001859621036369493913_);fill:#FFFFFF;" d="M128.2,29.7
					c1,0,1.9-0.8,1.9-1.9c0-1-0.8-1.9-1.9-1.9l0,0c-1,0-1.9,0.8-1.9,1.9C126.3,28.9,127.2,29.7,128.2,29.7"/>
			</g>
			<g>
				<defs>
					<rect id="SVGID_00000133519086913963729550000015073883101540585640_" x="76" y="7.9" width="69" height="69"/>
				</defs>
				<clipPath id="SVGID_00000071524087323386770370000006161959408203052421_">
					<use xlink:href="#SVGID_00000133519086913963729550000015073883101540585640_"  style="overflow:visible;"/>
				</clipPath>
				<path style="clip-path:url(#SVGID_00000071524087323386770370000006161959408203052421_);fill:#FFFFFF;" d="M142.8,38.3
					c-1,0.2-1.7,1.2-1.5,2.2c0.2,0.9,1,1.5,1.9,1.5c0.1,0,0.2,0,0.4,0c1-0.2,1.7-1.2,1.5-2.2C144.8,38.8,143.8,38.1,142.8,38.3"/>
			</g>
			<g>
				<defs>
					<rect id="SVGID_00000060002937903926143050000005688222569139159207_" x="76" y="7.9" width="69" height="69"/>
				</defs>
				<clipPath id="SVGID_00000018937606034811629160000002489989370451927478_">
					<use xlink:href="#SVGID_00000060002937903926143050000005688222569139159207_"  style="overflow:visible;"/>
				</clipPath>
				<path style="clip-path:url(#SVGID_00000018937606034811629160000002489989370451927478_);fill:#FFFFFF;" d="M143.5,43.5
					c-1-0.2-2,0.5-2.2,1.6c-0.2,1,0.5,2,1.6,2.2c0.1,0,0.2,0,0.3,0c0.9,0,1.7-0.7,1.9-1.6C145.2,44.7,144.5,43.7,143.5,43.5"/>
			</g>
			<g>
				<defs>
					<rect id="SVGID_00000135668310141711569670000010823630789282209930_" x="76" y="7.9" width="69" height="69"/>
				</defs>
				<clipPath id="SVGID_00000025442019282752641680000000549256472611498374_">
					<use xlink:href="#SVGID_00000135668310141711569670000010823630789282209930_"  style="overflow:visible;"/>
				</clipPath>
				<path style="clip-path:url(#SVGID_00000025442019282752641680000000549256472611498374_);fill:#FFFFFF;" d="M123.1,30.7
					c0.2,0,0.4,0,0.7-0.1c1-0.4,1.5-1.5,1.1-2.4c-0.4-1-1.5-1.5-2.4-1.1c-1,0.4-1.5,1.5-1.1,2.4C121.6,30.2,122.3,30.7,123.1,30.7"
					/>
			</g>
			<g>
				<defs>
					<rect id="SVGID_00000031912058832285000160000014504841065312907965_" x="76" y="7.9" width="69" height="69"/>
				</defs>
				<clipPath id="SVGID_00000049223364627115810250000018031256854423352506_">
					<use xlink:href="#SVGID_00000031912058832285000160000014504841065312907965_"  style="overflow:visible;"/>
				</clipPath>
				<path style="clip-path:url(#SVGID_00000049223364627115810250000018031256854423352506_);fill:#FFFFFF;" d="M116.4,31.3
					c0,0.1,0.1,0.2,0.2,0.3c0.1,0.1,0.1,0.2,0.2,0.3c0.1,0.1,0.2,0.2,0.3,0.2c0.1,0.1,0.2,0.1,0.3,0.2c0.1,0,0.2,0.1,0.4,0.1
					c0.1,0,0.2,0,0.4,0c0.5,0,1-0.2,1.3-0.6c0.1-0.1,0.2-0.2,0.2-0.3c0.1-0.1,0.1-0.2,0.2-0.3c0-0.1,0.1-0.2,0.1-0.4
					c0-0.1,0-0.2,0-0.4c0-0.5-0.2-1-0.6-1.3c-0.4-0.4-1.1-0.6-1.7-0.5c-0.1,0-0.2,0.1-0.4,0.1c-0.1,0-0.2,0.1-0.3,0.2
					c-0.1,0.1-0.2,0.1-0.3,0.2c-0.4,0.4-0.6,0.8-0.6,1.3c0,0.1,0,0.2,0,0.4C116.3,31,116.4,31.1,116.4,31.3"/>
			</g>
			<g>
				<defs>
					<rect id="SVGID_00000182521816508068626690000009903633213755453878_" x="76" y="7.9" width="69" height="69"/>
				</defs>
				<clipPath id="SVGID_00000018203332048618109510000007047049713208001469_">
					<use xlink:href="#SVGID_00000182521816508068626690000009903633213755453878_"  style="overflow:visible;"/>
				</clipPath>
				<path style="clip-path:url(#SVGID_00000018203332048618109510000007047049713208001469_);fill:#FFFFFF;" d="M138.6,51.5
					c-0.3-0.8-0.3-1.7,0.1-2.5l0.6-1.4c1.3-2.9,1.3-6.2,0.1-9.1c-1.2-3-3.4-5.3-6.3-6.5c-2.9-1.3-6.1-1.3-9.1-0.1l-0.1,0.1l0,0
					c-2.9,1.3-6,2.1-9.1,2.5c-0.1-1.4-1-2.5-2.1-3.2c1.9-0.8,3.2-2.6,3.2-4.8c0-1.3-0.5-2.5-1.2-3.4l0,0l-1.2-1.4
					c-1-1.2-1.7-2.6-1.8-4.3c1.6,0.2,3.1,0.8,4.3,1.8v-5.5c-1.2,1-2.6,1.7-4.3,1.8c0.2-1.6,0.8-3.1,1.8-4.3h-2.8h-2.8
					c1,1.2,1.7,2.6,1.8,4.3c-1.6-0.2-3.1-0.8-4.3-1.8v5.5c1.2-1,2.6-1.7,4.3-1.8c-0.2,1.6-0.8,3.1-1.8,4.3l-1.2,1.4l0,0
					c-0.8,0.9-1.2,2.1-1.2,3.4c0,2.1,1.3,4,3.2,4.8c-1.1,0.6-2,1.8-2.1,3.2c-3.1-0.4-6.2-1.2-9.1-2.5l-0.2-0.1
					c-2.9-1.2-6.2-1.1-9.1,0.1c-2.9,1.3-5.2,3.6-6.3,6.5c-1.2,3-1.1,6.2,0.1,9.1l0.6,1.4c0.4,0.8,0.4,1.7,0.1,2.5s-1,1.4-1.8,1.8
					L79.3,54l5.2,13.1l2.4,6.1c7.4-3.1,15.3-4.8,23.6-4.8s16.2,1.7,23.6,4.8l2.4-6.1l5.2-13.1l-1.4-0.6
					C139.5,53,138.9,52.4,138.6,51.5 M110.6,16.5L110.6,16.5L110.6,16.5L110.6,16.5L110.6,16.5L110.6,16.5L110.6,16.5z M102.2,61.2
					c-3.9,0-6.7-2.9-6.6-5.9c0-0.7,0.7-1.3,1.4-1.3c0.8,0,1.4,0.6,1.4,1.4c0,0.4-0.1,0.7-0.4,0.9c1.3-0.2,2.3-1.3,2.3-2.6
					c0-1.5-1.2-2.7-2.7-2.7c-1.3,0-2.4,1-2.6,2.2l0,0c0.1-0.8,0.1-1.9-0.2-3c-0.6-2.5-1.9-4.3-3-4l0,0c-1.1,0.3-1.5,2.5-1,4.9
					c0.2,1.1,0.6,2,1.1,2.8l0,0c-0.7-1.1-2.1-1.5-3.3-0.9c-1.3,0.6-1.9,2.2-1.3,3.5c0.6,1.2,1.9,1.8,3.2,1.4
					c-0.3-0.1-0.6-0.4-0.7-0.7c-0.3-0.7,0-1.6,0.7-1.9c0.7-0.3,1.5,0,1.9,0.6c1.4,2.7,0.1,6.5-3.4,8.1c-0.6,0.3-1.3,0.5-2,0.6
					l-3.7-9.4c1-0.7,1.7-1.6,2.1-2.7c0.6-1.6,0.6-3.3-0.1-4.9l-0.6-1.4c-0.9-2.2-1-4.5-0.1-6.7s2.5-3.9,4.7-4.8
					c2.1-0.9,4.5-1,6.7-0.1c3.3,1.5,6.9,2.4,10.5,2.8v8.2v2.9c1.4,1,2.4,2.6,2.7,4.4c-2.9-0.4-5.3-2-6.9-4.3v11
					c1.6-2.3,4-3.9,6.9-4.3C108.6,58.7,105.7,61.2,102.2,61.2 M134.1,64.8c-0.7-0.1-1.3-0.3-2-0.6c-3.5-1.7-4.8-5.4-3.4-8.1
					c0.4-0.7,1.2-0.9,1.9-0.6c0.7,0.3,1,1.2,0.7,1.9c-0.2,0.3-0.4,0.6-0.7,0.7c1.2,0.4,2.6-0.2,3.2-1.4c0.6-1.3,0.1-2.9-1.3-3.5
					c-1.2-0.6-2.6-0.2-3.3,0.9l0,0c0.5-0.7,0.9-1.7,1.1-2.8c0.6-2.5,0.1-4.7-1-4.9l0,0c-1.1-0.2-2.4,1.6-3,4c-0.2,1.1-0.3,2.1-0.2,3
					l0,0c-0.2-1.3-1.3-2.2-2.6-2.2c-1.5,0-2.7,1.2-2.7,2.7c0,1.3,1,2.4,2.3,2.6c-0.2-0.3-0.4-0.6-0.4-0.9c0-0.8,0.6-1.4,1.4-1.4
					s1.4,0.6,1.4,1.3c0.1,3.1-2.6,5.9-6.6,5.9c-3.5,0-6.4-2.5-7-5.9c2.9,0.4,5.3,2,6.9,4.3v-11c-1.5,2.3-4,3.9-6.9,4.3
					c0.3-1.8,1.3-3.3,2.7-4.4v-2.9v-8.2c3.6-0.4,7.1-1.4,10.5-2.8c2.2-0.8,4.5-0.8,6.7,0.1c2.2,0.9,3.8,2.7,4.7,4.8
					c0.9,2.2,0.8,4.6-0.1,6.7l-0.6,1.4c-0.7,1.6-0.7,3.3-0.1,4.9c0.4,1.1,1.2,2,2.1,2.7L134.1,64.8z"/>
			</g>
		</g>
	</g>
</g>
<path class="st0" d="M110.6,80.1c27,0,48.9,21.9,48.9,48.9s-21.9,48.9-48.9,48.9s-48.9-22-48.9-48.9S83.6,80.1,110.6,80.1
	 M110.6,74.4C80.4,74.4,56,98.8,56,129c0,30.1,24.4,54.6,54.6,54.6s54.6-24.4,54.6-54.6C165.1,98.8,140.7,74.4,110.6,74.4
	L110.6,74.4z"/>
<path class="st0" d="M215.4,5.7v272.1H5.7V5.7H215.4 M221.1,0H0v283.5h221.1V0L221.1,0z"/>
<g>
	<path class="st0" d="M49.2,217.6c4.4,0,7-1.8,7-7.5v-17.3h7.3v16.7c0,9.6-4.4,13.5-14.4,13.5s-14.4-3.9-14.4-13.5v-16.7h7.6v17.3
		C42.3,215.8,44.8,217.6,49.2,217.6z"/>
	<path class="st0" d="M84.5,192.8v11.9c0,0.4,0.2,0.5,0.5,0.5h1.9c0.5,0,0.7-0.1,0.9-0.4l9.6-12h8.9l-11,13.6
		c-0.2,0.3-0.3,0.3-0.3,0.6v0.5c0,0.3,0,0.4,0.3,0.6l12.8,14.6H97.8l-10-12.4c-0.2-0.3-0.4-0.4-0.8-0.4h-2c-0.4,0-0.5,0.2-0.5,0.5
		v12.3h-7.6V193h7.6V192.8z"/>
	<path class="st0" d="M142,222.5l-2.4-6.3c-0.2-0.5-0.4-0.5-0.9-0.5c-1.1,0-4,0-6.9,0c-2.7,0-5.2,0-6.3,0c-0.5,0-0.7,0-0.9,0.5
		l-2.4,6.3h-7.8l12.4-29.7h10.8l12.4,29.7H142z M137,210.3c0.2,0,0.4-0.2,0.3-0.4l-4.3-11.2c-0.1-0.3-0.3-0.4-0.6-0.4H132
		c-0.3,0-0.4,0.1-0.6,0.4l-4.3,11.2c-0.1,0.2,0.1,0.4,0.3,0.4H137z"/>
	<path class="st0" d="M184,193.8c0.6,0.2,0.8,0.3,0.8,0.3v1.8v2.6v0.9c0,0-1-0.2-1.2-0.2c-1.8-0.4-5.8-1.3-10.2-1.3
		c-3.5,0-6.5,0.5-6.5,3c0,2.4,2.1,2.7,7.2,3.4c7.5,1.1,12.4,2.3,12.4,9.3c0,7.6-7.6,9.3-14.9,9.3c-5.1,0-10.8-1-11.9-1.4
		c-0.6-0.2-0.6-0.2-0.6-0.2v-2.2v-2.8v-0.7c0,0,0.8,0.2,1,0.2c3.9,1,7.9,1.6,12.3,1.6c2.2,0,6.3-0.2,6.3-3.2c0-2.2-1-2.8-7-3.7
		c-7.3-1-12.5-2.6-12.5-9.2c0-7.5,7-9,14.4-9C178.3,192.5,183,193.5,184,193.8z"/>
</g>
<rect x="5.7" y="80" class="st0" width="17" height="3"/>
<rect x="5.7" y="127.5" class="st0" width="17" height="3"/>
<rect x="5.7" y="89.5" class="st0" width="8.5" height="3"/>
<rect x="5.7" y="99" class="st0" width="8.5" height="3"/>
<rect x="5.7" y="108.5" class="st0" width="8.5" height="3"/>
<rect x="5.7" y="118" class="st0" width="8.5" height="3"/>
<rect x="5.7" y="175" class="st0" width="16.3" height="3"/>
<rect x="5.7" y="137" class="st0" width="8.5" height="3"/>
<rect x="5.7" y="146.5" class="st0" width="8.5" height="3"/>
<rect x="5.7" y="156" class="st0" width="8.5" height="3"/>
<rect x="5.7" y="165.5" class="st0" width="8.5" height="3"/>
<rect x="198.4" y="175" class="st0" width="17" height="3"/>
<rect x="198.4" y="127.5" class="st0" width="17" height="3"/>
<rect x="206.9" y="165.5" class="st0" width="8.5" height="3"/>
<rect x="206.9" y="156" class="st0" width="8.5" height="3"/>
<rect x="206.9" y="146.5" class="st0" width="8.5" height="3"/>
<rect x="206.9" y="137" class="st0" width="8.5" height="3"/>
<rect x="199.1" y="80" class="st0" width="16.3" height="3"/>
<rect x="206.9" y="118" class="st0" width="8.5" height="3"/>
<rect x="206.9" y="108.5" class="st0" width="8.5" height="3"/>
<rect x="206.9" y="99" class="st0" width="8.5" height="3"/>
<rect x="206.9" y="89.5" class="st0" width="8.5" height="3"/>
<g>
	<path d="M52.5,297.2c3.5,0,6.4,1,8.7,3.1c2.3,2.1,3.5,4.7,3.5,8c0,1.5-0.2,2.8-0.7,4.1c-0.4,1.2-1.2,2.5-2.3,3.7
		c-1.1,1.2-2.9,2.7-5.6,4.4c-4,2.5-6.7,4.7-8.1,6.7h16.8v6.2H38.8c0-3.1,0.7-5.7,2.2-8c1.5-2.2,4.2-4.7,8.2-7.4
		c3.2-2.1,5.2-3.6,6.1-4.5c0.8-0.8,1.4-1.6,1.7-2.4c0.3-0.7,0.4-1.5,0.4-2.3c0-1.6-0.5-2.9-1.4-4c-0.9-1-2.2-1.5-3.9-1.5
		c-1.8,0-3.2,0.7-4.1,2.2c-1,1.5-1.5,3.5-1.5,6h-6.9v-0.7c0-4.2,1.2-7.5,3.5-10S48.5,297.2,52.5,297.2z"/>
	<path d="M85.8,298v35.5h-7.2v-23h-8.9V305h0.5c5.9,0,9.1-2.4,9.9-7.1H85.8z"/>
	<path d="M116.8,298v21.4h4.7v5.9h-4.7v8.2H110v-8.2h-15v-6.6l15.4-20.7H116.8z M109.8,307l-9.2,12.3h9.3V307H109.8z"/>
	<path d="M137.1,297.2c3.5,0,6.4,1,8.7,3.1c2.3,2.1,3.5,4.7,3.5,8c0,1.5-0.2,2.8-0.7,4.1c-0.4,1.2-1.2,2.5-2.3,3.7s-2.9,2.7-5.6,4.4
		c-4,2.5-6.7,4.7-8.1,6.7h16.8v6.2h-26.1c0-3.1,0.7-5.7,2.2-8c1.5-2.2,4.2-4.7,8.2-7.4c3.2-2.1,5.2-3.6,6.1-4.5
		c0.8-0.8,1.4-1.6,1.7-2.4c0.3-0.7,0.4-1.5,0.4-2.3c0-1.6-0.5-2.9-1.4-4c-0.9-1-2.2-1.5-3.9-1.5c-1.8,0-3.2,0.7-4.1,2.2
		c-1,1.5-1.5,3.5-1.5,6h-6.9v-0.7c0-4.2,1.2-7.5,3.5-10S133.2,297.2,137.1,297.2z"/>
	<path d="M164.6,297.2c3.3,0,6.2,0.9,8.5,2.8c2.3,1.9,3.5,4.2,3.5,7c0,1.8-0.4,3.3-1.3,4.6c-0.8,1.3-2.1,2.2-3.7,2.7v0.1
		c2,0.4,3.5,1.4,4.6,2.9c1.1,1.5,1.6,3.2,1.6,5.2c0,3.5-1.3,6.3-3.8,8.4c-2.5,2.2-5.7,3.2-9.4,3.2c-4.1,0-7.3-1.1-9.6-3.4
		s-3.6-5.3-3.6-9.1v-0.4h6.9c0.1,2.2,0.7,4,1.8,5.2c1.1,1.2,2.6,1.8,4.4,1.8c1.7,0,3.1-0.5,4.2-1.5c1.1-1,1.6-2.4,1.6-4
		c0-2.1-0.6-3.5-1.9-4.2c-1.3-0.7-3-1.1-5.2-1.1h-1.1v-5.1h1.3c2,0,3.6-0.4,4.6-1.1c1.1-0.8,1.6-1.9,1.6-3.3c0-1.5-0.5-2.7-1.5-3.5
		c-1-0.8-2.2-1.2-3.5-1.2c-1.7,0-3.1,0.6-4,1.7s-1.4,2.7-1.4,4.7h-6.8c0.1-3.8,1.3-6.7,3.5-9C158.1,298.4,161,297.2,164.6,297.2z"/>
</g>
</svg>
